<?xml version="1.0" encoding="UTF-8"?>
<svg version="1.1" xmlns="http://www.w3.org/2000/svg" width="408" height="386">
<path d="M0 0 C0.76618658 -0.00297112 1.53237316 -0.00594224 2.32177752 -0.0090034 C4.89109902 -0.01768026 7.46037387 -0.01919779 10.02970886 -0.02069092 C11.87113545 -0.02531978 13.71256108 -0.03034454 15.5539856 -0.03573608 C20.55819101 -0.0488549 25.56238302 -0.05530395 30.56660295 -0.05974674 C33.69308226 -0.06267811 36.81955791 -0.06678303 39.94603539 -0.07125092 C49.72827697 -0.08492405 59.51051019 -0.09459179 69.29276067 -0.09845281 C80.58469451 -0.10293421 91.87650735 -0.12048672 103.1684044 -0.1494534 C111.89718716 -0.17106781 120.62593586 -0.18115695 129.35474509 -0.18249393 C134.56794269 -0.18354206 139.78102651 -0.18945182 144.99419594 -0.20731354 C149.89846686 -0.22379016 154.80253842 -0.22595168 159.70682716 -0.21717453 C161.50512221 -0.21640396 163.30342796 -0.22074954 165.10169601 -0.23063278 C167.56030317 -0.24335103 170.01820406 -0.23747642 172.47680664 -0.22705078 C173.53937651 -0.23913539 173.53937651 -0.23913539 174.62341243 -0.25146413 C180.61740602 -0.19218665 185.18293384 1.24911984 189.80387878 5.14044189 C193.0635782 9.15237964 192.54704504 13.42502938 192.49137878 18.32794189 C192.48686707 19.07753174 192.48235535 19.82712158 192.47770691 20.59942627 C192.46594233 22.44646572 192.44800744 24.29346403 192.42887878 26.14044189 C193.28529968 26.12473145 194.14172058 26.109021 195.02409363 26.09283447 C198.24835408 26.0412376 201.47240179 26.00386643 204.69694519 25.97564697 C206.08373505 25.96070242 207.47047885 25.94033911 208.85710144 25.91412354 C222.46525947 25.66357622 233.27160414 27.35395246 243.40544128 37.02716064 C249.61456092 43.7515051 253.50091597 50.87339856 253.60588074 60.11749268 C253.61871597 61.10597198 253.63155121 62.09445129 253.64477539 63.11288452 C253.65585579 64.70820511 253.65585579 64.70820511 253.66716003 66.33575439 C253.67523178 67.43837616 253.68330353 68.54099792 253.69161987 69.67703247 C253.70544708 72.01215042 253.71617533 74.34728846 253.7240448 76.68243408 C253.73554911 79.06042437 253.75597611 81.43838916 253.78556824 83.81622314 C253.82842903 87.26041131 253.84444166 90.70383196 253.85466003 94.14825439 C253.87216812 95.19965607 253.88967621 96.25105774 253.90771484 97.33432007 C253.87740233 107.77215379 250.60129723 116.47501907 243.42887878 124.14044189 C234.60883343 132.28957471 225.71572852 135.29313387 213.71794128 135.23809814 C212.47399597 135.23487549 211.23005066 135.23165283 209.94841003 135.22833252 C208.66321472 135.21995361 207.37801941 135.21157471 206.05387878 135.20294189 C204.74548035 135.19843018 203.43708191 135.19391846 202.08903503 135.18927002 C198.86893598 135.17751783 195.64893108 135.16108733 192.42887878 135.14044189 C192.2525592 136.13189209 192.2525592 136.13189209 192.07267761 137.14337158 C191.19443168 141.83822955 190.34540672 146.12116364 188.11637878 150.39044189 C187.53436707 151.54286377 187.53436707 151.54286377 186.94059753 152.71856689 C185.02644555 155.78516698 182.76168465 158.37791486 180.42887878 161.14044189 C181.19007523 161.14630814 181.95127167 161.15217438 182.73553467 161.15821838 C189.92976634 161.21626369 197.12365635 161.28840734 204.31758213 161.37615681 C208.01554726 161.42077246 211.71340447 161.46004741 215.4115448 161.48687744 C218.98440671 161.51299909 222.55685132 161.5534626 226.12945366 161.60362816 C227.48845645 161.62023734 228.84753133 161.63178854 230.20662117 161.6380558 C245.61335391 161.71625291 245.61335391 161.71625291 251.86637878 167.32794189 C253.95489742 171.08727543 254.49334361 174.01923686 253.42887878 178.14044189 C251.46041092 181.78210745 249.03076166 184.93026027 246.42887878 188.14044189 C245.86555847 188.86747314 245.30223816 189.59450439 244.72184753 190.34356689 C237.79877964 198.83932235 229.14348727 203.874113 218.42887878 206.14044189 C211.36718271 206.76874411 204.25825301 206.52002464 197.17887878 206.39044189 C195.25832457 206.37033817 193.33774995 206.35209428 191.41716003 206.33575439 C186.75388753 206.29208406 182.09161336 206.22327265 177.42887878 206.14044189 C177.28716248 207.24959961 177.14544617 208.35875732 176.99943542 209.50152588 C175.82962459 216.96238617 170.3920087 221.5596075 164.55387878 225.91387939 C158.00719734 229.69266243 151.58038383 229.43090461 144.23234558 229.4151001 C143.0072226 229.42021103 141.78209961 229.42532196 140.51985168 229.43058777 C137.17045409 229.44208454 133.82130445 229.44456066 130.47190452 229.44202447 C127.66899236 229.44095176 124.86610282 229.44584595 122.06319553 229.45062989 C115.44557067 229.46171236 108.82800257 229.46217008 102.21037292 229.45611572 C95.40071575 229.45008106 88.59126546 229.4623768 81.78164357 229.48368579 C75.92069523 229.50134667 70.05981247 229.50729597 64.19883853 229.50404805 C60.70481508 229.50224163 57.21093911 229.50480651 53.71693993 229.51876259 C49.81574379 229.53376276 45.91480751 229.52433165 42.01359558 229.51275635 C40.86783554 229.52040009 39.7220755 229.52804382 38.54159546 229.53591919 C28.16486375 229.46804104 20.98388337 227.54831775 13.38200378 220.33184814 C9.44474317 215.91424174 7.42887878 212.07275245 7.42887878 206.14044189 C6.24447205 206.16138916 5.06006531 206.18233643 3.83976746 206.20391846 C-0.60135053 206.2769286 -5.0424167 206.32246113 -9.48396301 206.36016846 C-11.39746556 206.38014609 -13.31090814 206.40733788 -15.22419739 206.44219971 C-35.59044608 206.80369929 -35.59044608 206.80369929 -44.57112122 202.14044189 C-45.90264221 201.47214355 -45.90264221 201.47214355 -47.26106262 200.79034424 C-56.13564116 196.14395872 -64.63676428 187.47748035 -68.57112122 178.14044189 C-69.59951897 173.65288808 -68.93769967 170.74029754 -66.50862122 166.76544189 C-59.73714069 160.71433164 -50.76054239 161.72447381 -42.13362122 161.51544189 C-40.8297345 161.47677002 -39.52584778 161.43809814 -38.18244934 161.39825439 C-34.97881122 161.30437489 -31.7751729 161.21869035 -28.57112122 161.14044189 C-29.38194153 160.56938721 -30.19276184 159.99833252 -31.02815247 159.40997314 C-49.53271378 146.01448157 -64.62044606 124.94698424 -68.32112122 101.93341064 C-70.21910102 80.72941757 -70.21910102 80.72941757 -64.57112122 73.14044189 C-59.7095417 67.46677009 -54.99844667 64.75938568 -47.57112122 64.14044189 C-40.4991729 63.63796136 -34.06912495 64.10078449 -27.14533997 65.65997314 C-25.90743713 65.93559082 -24.6695343 66.2112085 -23.39411926 66.49517822 C-22.46252991 66.70811523 -21.53094055 66.92105225 -20.57112122 67.14044189 C-20.57778305 66.46694199 -20.58444489 65.79344208 -20.59130859 65.09953308 C-20.65779741 58.07521346 -20.70297824 51.0509836 -20.73591614 44.02642822 C-20.750981 41.4065996 -20.77143676 38.78679611 -20.79743958 36.16705322 C-20.83392284 32.39640085 -20.85087109 28.62608263 -20.86408997 24.85528564 C-20.87957382 23.68835678 -20.89505768 22.52142792 -20.91101074 21.31913757 C-20.91227885 15.15965184 -20.7073235 10.51488383 -17.57112122 5.14044189 C-11.78113505 0.45917648 -7.22511853 -0.00875497 0 0 Z M193.42887878 58.14044189 C193.32434133 60.879938 193.28810646 63.5881798 193.30387878 66.32794189 C193.30726257 67.16349609 193.31064636 67.99905029 193.31413269 68.85992432 C193.36727439 75.5613396 193.54370304 82.25651393 193.80387878 88.95294189 C193.83465515 89.87679687 193.86543152 90.80065186 193.8971405 91.75250244 C194.11003169 96.5602215 194.59228834 100.62362393 196.42887878 105.14044189 C200.36624002 105.22740366 204.30335507 105.28082024 208.24137878 105.32794189 C209.36092957 105.35307861 210.48048035 105.37821533 211.63395691 105.40411377 C213.24367371 105.41861572 213.24367371 105.41861572 214.88591003 105.43341064 C215.87566833 105.44912109 216.86542664 105.46483154 217.88517761 105.48101807 C220.43306149 105.33591046 220.43306149 105.33591046 222.20231628 103.9151001 C227.08903347 96.84472844 225.77078455 85.46760328 225.74455261 77.23077393 C225.74134095 75.11552692 225.76512594 73.00161589 225.79020691 70.88653564 C225.79247567 69.53367281 225.79318537 68.18080625 225.79216003 66.82794189 C225.79514099 65.61493408 225.79812195 64.40192627 225.80119324 63.15216064 C225.68301114 60.15692851 225.68301114 60.15692851 224.02336121 58.25445557 C218.92811368 54.69456972 197.97126667 53.598054 193.42887878 58.14044189 Z " fill="#090A0A" transform="translate(106.57112121582031,114.85955810546875)"/>
<path d="M0 0 C0.73111215 0.0015486 1.46222429 0.0030972 2.21549135 0.00469273 C2.98672604 0.00242718 3.75796073 0.00016162 4.55256617 -0.00217259 C7.15669924 -0.00854154 9.76078065 -0.00768138 12.36492068 -0.00685817 C14.22386912 -0.00984786 16.08281694 -0.01324994 17.94176394 -0.01703578 C23.0057304 -0.02589927 28.06967999 -0.02821487 33.13365346 -0.02885157 C37.35360432 -0.02979868 41.57355121 -0.03347467 45.79350054 -0.03702366 C55.74520642 -0.04517711 65.69690325 -0.04760708 75.64861208 -0.04689723 C85.93179305 -0.04629616 96.21492161 -0.05685182 106.49808931 -0.0726409 C115.3116584 -0.08569382 124.12521032 -0.09108208 132.93878901 -0.09044182 C138.20941136 -0.09018618 143.47998716 -0.09307384 148.75059992 -0.10361987 C153.70567251 -0.11326318 158.66065369 -0.1134061 163.61572939 -0.10610324 C165.43869382 -0.10505269 167.26166382 -0.10744791 169.08461863 -0.1134637 C171.56471292 -0.12112059 174.04448656 -0.11658111 176.52457339 -0.10883266 C177.25345481 -0.11397622 177.98233624 -0.11911978 178.73330498 -0.12441921 C183.70525295 -0.08986574 183.70525295 -0.08986574 185.93352419 2.1384055 C186.1907931 4.22227257 186.1907931 4.22227257 186.20094973 6.84709996 C186.21374468 8.33759106 186.21374468 8.33759106 186.22679812 9.8581931 C186.22543856 11.49990483 186.22543856 11.49990483 186.22405154 13.17478245 C186.23076876 14.32462117 186.23748598 15.47445988 186.24440676 16.6591422 C186.26348727 20.48170044 186.26731719 24.30408377 186.26946169 28.12668675 C186.27426292 30.11173251 186.27906752 32.0967783 186.28438252 34.08182275 C186.30068876 40.33612954 186.30555016 46.59037874 186.30412966 52.84470433 C186.30293359 59.27026601 186.32392242 65.69548887 186.35561699 72.120965 C186.38191326 77.65153958 186.39249112 83.18200463 186.39121884 88.71264112 C186.39071227 92.00907653 186.39810065 95.30514755 186.41757494 98.60153455 C186.43733209 102.29419735 186.43135599 105.98601005 186.41936404 109.6786887 C186.43060305 110.75089665 186.44184206 111.8231046 186.45342165 112.9278037 C186.3631443 123.95480879 183.91285596 135.10404386 175.93352419 143.1384055 C166.24398781 151.78202451 156.7204519 153.29670569 144.06291872 153.25193089 C142.97939623 153.25207692 141.89587374 153.25222295 140.77951723 153.2523734 C137.20843648 153.25167834 133.6374083 153.24390497 130.06633669 153.23606175 C127.58626496 153.23419613 125.10619286 153.23277291 122.62612063 153.23177403 C116.10612122 153.22796024 109.58614417 153.21813965 103.06615359 153.20707005 C96.40996891 153.19628955 89.75377772 153.19227117 83.09758669 153.18723363 C70.04288967 153.17651637 56.98820812 153.15964646 43.93352419 153.1384055 C43.93352419 150.8284055 43.93352419 148.5184055 43.93352419 146.1384055 C44.50060249 146.13693894 45.06768078 146.13547238 45.65194327 146.13396138 C59.49229296 146.09680315 73.33239653 146.03742035 87.17255026 145.95450276 C93.86575381 145.9148046 100.55881918 145.88285889 107.25212771 145.86740941 C113.71675513 145.85221785 120.18102282 145.81772693 126.64548975 145.77009648 C129.10647802 145.75530863 131.56751765 145.74736599 134.02855021 145.74652165 C137.48725101 145.74414254 140.94496529 145.71698489 144.40349489 145.68430394 C145.41122957 145.6893343 146.41896425 145.69436467 147.45723635 145.69954747 C155.12660672 145.58810959 163.11050205 144.40148961 169.12090689 139.27139729 C171.02677703 137.28888964 172.48503228 135.48621555 173.93352419 133.1384055 C174.26599154 132.61930608 174.59845888 132.10020665 174.941001 131.56537694 C179.27037077 123.59419395 178.49268989 114.76985967 178.42961794 105.97043675 C178.42977313 104.20405329 178.43126542 102.4376695 178.43402773 100.67128819 C178.43540677 96.98382177 178.42293329 93.29674666 178.40007693 89.60935277 C178.37163093 84.89170201 178.3744532 80.1746976 178.38716704 75.45699853 C178.39413136 71.8152041 178.38632738 68.17355825 178.37391001 64.53178281 C178.36940725 62.79231844 178.36904841 61.05283807 178.37297541 59.31337231 C178.37589669 56.88207867 178.35933993 54.45166747 178.33757693 52.02048558 C178.34207857 51.30813756 178.34658022 50.59578954 178.35121828 49.86185521 C178.28271422 45.23913711 177.40272552 42.04868637 174.93352419 38.1384055 C171.29047555 35.70970641 168.6263008 35.88164875 164.42180544 35.943093 C163.32946848 35.94733784 163.32946848 35.94733784 162.21506411 35.95166844 C159.89188282 35.96285293 157.56908872 35.98795384 155.24602419 36.0134055 C153.66985789 36.02343756 152.09368554 36.03256302 150.51750857 36.04074925 C146.65603152 36.06278654 142.79484348 36.09730409 138.93352419 36.1384055 C138.89098063 38.13795296 138.89271636 40.13882186 138.93352419 42.1384055 C140.79317494 43.99805625 143.88241538 43.37928099 146.37493044 43.45481175 C147.68010622 43.49670628 148.985282 43.53860081 150.33000857 43.58176488 C151.71867749 43.62158158 153.10734941 43.66129375 154.49602419 43.7009055 C155.88861603 43.74408539 157.28119447 43.7876995 158.67375857 43.83176488 C162.0935722 43.93826426 165.51346182 44.04027473 168.93352419 44.1384055 C169.00309184 54.4654423 169.05636987 64.79242316 169.08896071 75.11964673 C169.10460416 79.91520923 169.12581836 84.71061118 169.15984255 89.50608128 C169.19248304 94.13559737 169.21038714 98.7649592 169.21815592 103.3945815 C169.22369101 105.15919614 169.23449973 106.92380251 169.25071436 108.68835133 C169.27255114 111.16358628 169.27548853 113.6381871 169.27410036 116.11350316 C169.28488619 116.83999058 169.29567202 117.56647801 169.30678469 118.31498021 C169.27842048 123.00141336 168.4036659 126.16104213 165.93352419 130.1384055 C161.07221386 134.78835452 156.86267898 137.39413873 150.08029848 137.37891454 C149.13103991 137.38166386 148.18178133 137.38441319 147.20375735 137.38724583 C146.17445101 137.38005528 145.14514467 137.37286473 144.08464724 137.36545628 C142.44495219 137.36589436 142.44495219 137.36589436 140.77213198 137.36634129 C137.1630879 137.36494923 133.5542509 137.34939357 129.94524294 137.333718 C127.44132258 137.32998744 124.93740076 137.32714067 122.43347842 137.32514256 C116.51914493 137.3182895 110.60487777 137.30253045 104.69057834 137.28244358 C97.29435996 137.25787045 89.89813234 137.24714829 82.50188357 137.23606175 C69.31239278 137.21461767 56.12296319 137.18087054 42.93352419 137.1384055 C42.80800173 136.13607884 42.68247927 135.13375218 42.5531531 134.10105199 C42.38065232 132.75801024 42.20795288 131.41499401 42.03508669 130.07199925 C41.95331179 129.41469823 41.87153689 128.7573972 41.78728396 128.08017796 C39.64174586 111.56156827 32.92517382 94.08805286 20.93352419 82.1384055 C19.47366091 81.20834691 19.47366091 81.20834691 17.98430544 80.25949925 C14.4947054 77.90480114 11.69353939 75.99856153 9.93352419 72.1384055 C8.49480796 63.35775801 8.88933753 53.95824317 9.93352419 45.1384055 C11.50616605 43.56576365 13.06922686 44.0039803 15.25430971 43.99364537 C16.18676516 43.98674687 17.1192206 43.97984837 18.07993227 43.97274083 C19.62672419 43.96882077 19.62672419 43.96882077 21.20476443 43.96482152 C22.2843442 43.95813451 23.36392397 43.95144749 24.47621828 43.94455785 C26.82909091 43.93047029 29.18197751 43.91858817 31.53487116 43.90861005 C35.25309862 43.89226348 38.97122231 43.86902928 42.68939883 43.84371251 C53.26396912 43.77275523 63.83857815 43.7126891 74.41326052 43.66159886 C80.8724136 43.62988376 87.33144806 43.58862722 93.79050547 43.54140347 C96.25894266 43.5253378 98.72740721 43.5130375 101.1958819 43.50449628 C104.64167424 43.49240121 108.08718549 43.46827625 111.53288943 43.44138402 C112.56205981 43.44079488 113.59123019 43.44020573 114.65158755 43.43959874 C115.58686281 43.42988042 116.52213808 43.42016209 117.48575503 43.41014928 C118.70886967 43.40380137 118.70886967 43.40380137 119.95669371 43.39732522 C122.165975 43.31214667 122.165975 43.31214667 123.93352419 41.1384055 C123.61311022 38.53559982 123.61311022 38.53559982 122.93352419 36.1384055 C107.89546331 36.02156954 92.85743762 35.93341616 77.81901938 35.87934464 C70.83628129 35.85357011 63.85382533 35.81843462 56.87126833 35.76120824 C50.13448043 35.70602243 43.39804636 35.67699516 36.6610232 35.66401929 C34.08893567 35.65477052 31.51686444 35.63671011 28.94490153 35.60975522 C25.34610925 35.57353401 21.74853345 35.56845755 18.14958864 35.57077855 C16.54952471 35.54381398 16.54952471 35.54381398 14.91713625 35.51630467 C8.90950975 35.54743303 8.90950975 35.54743303 3.77373415 38.50071019 C1.6468333 41.54933862 1.28567357 43.18776077 1.22649294 46.87668675 C1.19748904 47.94338597 1.16848513 49.01008519 1.13860232 50.10910863 C1.13280154 51.2119016 1.12700075 52.31469456 1.12102419 53.4509055 C1.09588747 54.57303441 1.07075075 55.69516331 1.04485232 56.85129613 C0.98607099 59.61401837 0.94972439 62.37515942 0.93352419 65.1384055 C-3.81647581 64.2634055 -3.81647581 64.2634055 -6.06647581 63.1384055 C-6.08960318 55.07188376 -6.1073929 47.00537578 -6.11828798 38.93882912 C-6.12351595 35.19357513 -6.13061202 31.44834375 -6.14191526 27.70310277 C-6.15274722 24.09158863 -6.15875329 20.48009629 -6.16135305 16.86856717 C-6.16320675 15.48780221 -6.1668263 14.1070385 -6.17220587 12.72628278 C-6.17942028 10.79864598 -6.1798839 8.87098743 -6.1800012 6.94333714 C-6.18222181 5.84413441 -6.18444242 4.74493169 -6.18673033 3.61241978 C-5.97089077 -0.82807995 -3.93551485 0.01925274 0 0 Z " fill="#BAEB6B" transform="translate(103.06647580862045,125.8615944981575)"/>
<path d="M0 0 C0.73111215 0.0015486 1.46222429 0.0030972 2.21549135 0.00469273 C2.98672604 0.00242718 3.75796073 0.00016162 4.55256617 -0.00217259 C7.15669924 -0.00854154 9.76078065 -0.00768138 12.36492068 -0.00685817 C14.22386912 -0.00984786 16.08281694 -0.01324994 17.94176394 -0.01703578 C23.0057304 -0.02589927 28.06967999 -0.02821487 33.13365346 -0.02885157 C37.35360432 -0.02979868 41.57355121 -0.03347467 45.79350054 -0.03702366 C55.74520642 -0.04517711 65.69690325 -0.04760708 75.64861208 -0.04689723 C85.93179305 -0.04629616 96.21492161 -0.05685182 106.49808931 -0.0726409 C115.3116584 -0.08569382 124.12521032 -0.09108208 132.93878901 -0.09044182 C138.20941136 -0.09018618 143.47998716 -0.09307384 148.75059992 -0.10361987 C153.70567251 -0.11326318 158.66065369 -0.1134061 163.61572939 -0.10610324 C165.43869382 -0.10505269 167.26166382 -0.10744791 169.08461863 -0.1134637 C171.56471292 -0.12112059 174.04448656 -0.11658111 176.52457339 -0.10883266 C177.25345481 -0.11397622 177.98233624 -0.11911978 178.73330498 -0.12441921 C183.70525295 -0.08986574 183.70525295 -0.08986574 185.93352419 2.1384055 C186.1907931 4.22227257 186.1907931 4.22227257 186.20094973 6.84709996 C186.21374468 8.33759106 186.21374468 8.33759106 186.22679812 9.8581931 C186.22543856 11.49990483 186.22543856 11.49990483 186.22405154 13.17478245 C186.23076876 14.32462117 186.23748598 15.47445988 186.24440676 16.6591422 C186.26348727 20.48170044 186.26731719 24.30408377 186.26946169 28.12668675 C186.27426292 30.11173251 186.27906752 32.0967783 186.28438252 34.08182275 C186.30068876 40.33612954 186.30555016 46.59037874 186.30412966 52.84470433 C186.30293359 59.27026601 186.32392242 65.69548887 186.35561699 72.120965 C186.38191326 77.65153958 186.39249112 83.18200463 186.39121884 88.71264112 C186.39071227 92.00907653 186.39810065 95.30514755 186.41757494 98.60153455 C186.43733209 102.29419735 186.43135599 105.98601005 186.41936404 109.6786887 C186.43060305 110.75089665 186.44184206 111.8231046 186.45342165 112.9278037 C186.3631443 123.95480879 183.91285596 135.10404386 175.93352419 143.1384055 C166.24398781 151.78202451 156.7204519 153.29670569 144.06291872 153.25193089 C142.97939623 153.25207692 141.89587374 153.25222295 140.77951723 153.2523734 C137.20843648 153.25167834 133.6374083 153.24390497 130.06633669 153.23606175 C127.58626496 153.23419613 125.10619286 153.23277291 122.62612063 153.23177403 C116.10612122 153.22796024 109.58614417 153.21813965 103.06615359 153.20707005 C96.40996891 153.19628955 89.75377772 153.19227117 83.09758669 153.18723363 C70.04288967 153.17651637 56.98820812 153.15964646 43.93352419 153.1384055 C43.93352419 150.8284055 43.93352419 148.5184055 43.93352419 146.1384055 C44.50060249 146.13693894 45.06768078 146.13547238 45.65194327 146.13396138 C59.49229296 146.09680315 73.33239653 146.03742035 87.17255026 145.95450276 C93.86575381 145.9148046 100.55881918 145.88285889 107.25212771 145.86740941 C113.71675513 145.85221785 120.18102282 145.81772693 126.64548975 145.77009648 C129.10647802 145.75530863 131.56751765 145.74736599 134.02855021 145.74652165 C137.48725101 145.74414254 140.94496529 145.71698489 144.40349489 145.68430394 C145.41122957 145.6893343 146.41896425 145.69436467 147.45723635 145.69954747 C155.12660672 145.58810959 163.11050205 144.40148961 169.12090689 139.27139729 C171.02677703 137.28888964 172.48503228 135.48621555 173.93352419 133.1384055 C174.26599154 132.61930608 174.59845888 132.10020665 174.941001 131.56537694 C179.27037077 123.59419395 178.49268989 114.76985967 178.42961794 105.97043675 C178.42977313 104.20405329 178.43126542 102.4376695 178.43402773 100.67128819 C178.43540677 96.98382177 178.42293329 93.29674666 178.40007693 89.60935277 C178.37163093 84.89170201 178.3744532 80.1746976 178.38716704 75.45699853 C178.39413136 71.8152041 178.38632738 68.17355825 178.37391001 64.53178281 C178.36940725 62.79231844 178.36904841 61.05283807 178.37297541 59.31337231 C178.37589669 56.88207867 178.35933993 54.45166747 178.33757693 52.02048558 C178.34207857 51.30813756 178.34658022 50.59578954 178.35121828 49.86185521 C178.28271422 45.23913711 177.40272552 42.04868637 174.93352419 38.1384055 C171.29047555 35.70970641 168.6263008 35.88164875 164.42180544 35.943093 C163.32946848 35.94733784 163.32946848 35.94733784 162.21506411 35.95166844 C159.89188282 35.96285293 157.56908872 35.98795384 155.24602419 36.0134055 C153.66985789 36.02343756 152.09368554 36.03256302 150.51750857 36.04074925 C146.65603152 36.06278654 142.79484348 36.09730409 138.93352419 36.1384055 C138.27352419 37.4584055 137.61352419 38.7784055 136.93352419 40.1384055 C132.97352419 40.1384055 129.01352419 40.1384055 124.93352419 40.1384055 C123.94352419 38.1584055 123.94352419 38.1584055 122.93352419 36.1384055 C107.89546331 36.02156954 92.85743762 35.93341616 77.81901938 35.87934464 C70.83628129 35.85357011 63.85382533 35.81843462 56.87126833 35.76120824 C50.13448043 35.70602243 43.39804636 35.67699516 36.6610232 35.66401929 C34.08893567 35.65477052 31.51686444 35.63671011 28.94490153 35.60975522 C25.34610925 35.57353401 21.74853345 35.56845755 18.14958864 35.57077855 C16.54952471 35.54381398 16.54952471 35.54381398 14.91713625 35.51630467 C8.90950975 35.54743303 8.90950975 35.54743303 3.77373415 38.50071019 C1.6468333 41.54933862 1.28567357 43.18776077 1.22649294 46.87668675 C1.19748904 47.94338597 1.16848513 49.01008519 1.13860232 50.10910863 C1.13280154 51.2119016 1.12700075 52.31469456 1.12102419 53.4509055 C1.09588747 54.57303441 1.07075075 55.69516331 1.04485232 56.85129613 C0.98607099 59.61401837 0.94972439 62.37515942 0.93352419 65.1384055 C-3.81647581 64.2634055 -3.81647581 64.2634055 -6.06647581 63.1384055 C-6.08960318 55.07188376 -6.1073929 47.00537578 -6.11828798 38.93882912 C-6.12351595 35.19357513 -6.13061202 31.44834375 -6.14191526 27.70310277 C-6.15274722 24.09158863 -6.15875329 20.48009629 -6.16135305 16.86856717 C-6.16320675 15.48780221 -6.1668263 14.1070385 -6.17220587 12.72628278 C-6.17942028 10.79864598 -6.1798839 8.87098743 -6.1800012 6.94333714 C-6.18222181 5.84413441 -6.18444242 4.74493169 -6.18673033 3.61241978 C-5.97089077 -0.82807995 -3.93551485 0.01925274 0 0 Z " fill="#E4E8F3" transform="translate(103.06647580862045,125.8615944981575)"/>
<path d="M0 0 C99 0 198 0 300 0 C298.43512114 7.82439432 292.67435039 13.47634829 286.125 17.9375 C276.75677756 22.98636447 267.08297094 23.44072588 256.64013672 23.41650391 C255.23128036 23.42390018 253.82243039 23.43261015 252.41358948 23.44252014 C248.62293821 23.46565353 244.83245114 23.47098122 241.04173803 23.47317934 C237.06635483 23.47887327 233.09107608 23.50216402 229.11575317 23.52377319 C221.60205678 23.56215787 214.08839065 23.58646839 206.57462132 23.60489786 C193.08915719 23.63843621 179.60378293 23.69596463 166.1184274 23.75888956 C161.3861419 23.78040751 156.65388813 23.79566069 151.92156482 23.80572915 C148.99012596 23.81272342 146.05871008 23.8235986 143.12728691 23.83537102 C141.11059789 23.84213529 139.09389394 23.84384675 137.07719421 23.84544373 C135.88849228 23.85089706 134.69979034 23.8563504 133.47506714 23.86196899 C132.43574476 23.86452509 131.39642239 23.86708118 130.32560539 23.86971474 C128.03917172 23.73867888 128.03917172 23.73867888 127 25 C126.83333333 27.5 126.83333333 27.5 127 30 C129.13080698 32.13080698 133.97379828 31.1863178 136.92602539 31.20532227 C138.33075859 31.22017166 138.33075859 31.22017166 139.76387024 31.23532104 C142.87510608 31.26703753 145.98635722 31.29173341 149.09765625 31.31640625 C151.24857492 31.33696703 153.39948946 31.35796325 155.55039978 31.37937927 C161.22377189 31.4346905 166.89718101 31.48405972 172.57061768 31.53222656 C178.35505484 31.58237567 184.13943796 31.63809606 189.92382812 31.69335938 C201.28250598 31.80105158 212.64123065 31.90247182 224 32 C223.07845147 38.60061227 223.07845147 38.60061227 219.5625 41.3125 C218.63630859 42.04919922 218.63630859 42.04919922 217.69140625 42.80078125 C214.60488968 44.98914288 212.65299919 45.13015036 208.90252686 45.14717102 C207.28327049 45.15790398 207.28327049 45.15790398 205.63130188 45.16885376 C204.44167343 45.17154266 203.25204498 45.17423157 202.02636719 45.17700195 C200.77750229 45.18357315 199.52863739 45.19014435 198.2419281 45.19691467 C194.09357467 45.21668607 189.94525994 45.22831881 185.796875 45.23828125 C184.36871572 45.2423287 182.94055664 45.24644562 181.51239777 45.25063133 C174.8018885 45.26968601 168.09139026 45.28391561 161.38085914 45.2922433 C153.63642077 45.30201275 145.89226845 45.32832315 138.14793086 45.36874419 C132.16143196 45.39891705 126.17501498 45.41371333 120.18844151 45.41702431 C116.61333993 45.41937381 113.03854383 45.42832029 109.46352386 45.45348549 C105.47266008 45.48112335 101.48217164 45.47693143 97.49121094 45.4699707 C95.71891365 45.48918579 95.71891365 45.48918579 93.91081238 45.50878906 C87.64695868 45.46891401 83.71746276 45.2942516 79 41 C76.42297891 37.56397188 76 36.39927132 76 32 C77.05501709 31.97494385 78.11003418 31.9498877 79.19702148 31.92407227 C83.09770628 31.83015891 86.99820625 31.72989966 90.89868164 31.62768555 C92.58939299 31.58427561 94.28014991 31.54260511 95.97094727 31.50268555 C98.39613606 31.44512906 100.82109415 31.38139351 103.24609375 31.31640625 C104.00651474 31.29969376 104.76693573 31.28298126 105.55039978 31.26576233 C109.07082031 31.47908732 109.07082031 31.47908732 112 30 C112.16666667 27.5 112.16666667 27.5 112 25 C110.26079715 23.26079715 108.00709954 23.87627805 105.6892395 23.86766052 C104.92779633 23.86976028 104.16635315 23.87186005 103.38183594 23.87402344 C102.58327179 23.8721553 101.78470764 23.87028717 100.96194458 23.86836243 C99.21968663 23.86434695 97.47742337 23.86228254 95.73516083 23.86190033 C92.01800413 23.85848783 88.30102278 23.83711547 84.58392715 23.81666946 C77.66074794 23.77869269 70.73774828 23.7473697 63.81445312 23.74951172 C59.00195443 23.75030425 54.19008759 23.72669484 49.37775421 23.6876297 C47.5519928 23.67723939 45.72615779 23.6755937 43.900383 23.68328094 C28.96417315 23.73982634 17.13073051 22.05783584 6.03515625 11.21484375 C0 4.64683301 0 4.64683301 0 0 Z " fill="#BDC4EC" transform="translate(49,288)"/>
<path d="M0 0 C24.60798897 -0.04666364 49.21597133 -0.08196114 73.82399559 -0.10362434 C85.2492152 -0.11394906 96.67440737 -0.12803215 108.09960938 -0.15087891 C118.05460459 -0.17077628 128.00957994 -0.18370774 137.96459448 -0.18817699 C143.23859149 -0.19079058 148.51253164 -0.19695831 153.78651047 -0.21146011 C158.74566554 -0.22498639 163.70474006 -0.22923273 168.66391182 -0.22621536 C170.48849105 -0.22676776 172.31307285 -0.23077459 174.13763618 -0.23841095 C176.61996468 -0.24829481 179.10198512 -0.24599311 181.58432007 -0.24050903 C182.31388361 -0.24633472 183.04344716 -0.2521604 183.79511869 -0.25816262 C188.77175758 -0.22824242 188.77175758 -0.22824242 191 2 C191.25726891 4.08386707 191.25726891 4.08386707 191.26742554 6.70869446 C191.28022049 8.19918556 191.28022049 8.19918556 191.29327393 9.7197876 C191.29191437 11.36149933 191.29191437 11.36149933 191.29052734 13.03637695 C191.29724457 14.18621567 191.30396179 15.33605438 191.31088257 16.52073669 C191.32996308 20.34329494 191.333793 24.16567826 191.3359375 27.98828125 C191.34073873 29.97332701 191.34554333 31.9583728 191.35085833 33.94341725 C191.36716456 40.19772403 191.37202597 46.45197324 191.37060547 52.70629883 C191.3694094 59.13186051 191.39039823 65.55708337 191.4220928 71.9825595 C191.44838907 77.51313408 191.45896693 83.04359913 191.45769465 88.57423562 C191.45718808 91.87067103 191.46457645 95.16674205 191.48405075 98.46312904 C191.5038079 102.15579185 191.4978318 105.84760455 191.48583984 109.5402832 C191.49707886 110.61249115 191.50831787 111.6846991 191.51989746 112.78939819 C191.42962011 123.81640329 188.97933177 134.96563836 181 143 C171.31046362 151.64361901 161.7869277 153.15830018 149.12939453 153.11352539 C148.04587204 153.11367142 146.96234955 153.11381744 145.84599304 153.1139679 C142.27491229 153.11327284 138.70388411 153.10549947 135.1328125 153.09765625 C132.65274077 153.09579063 130.17266867 153.0943674 127.69259644 153.09336853 C121.17259703 153.08955474 114.65261998 153.07973414 108.13262939 153.06866455 C101.47644472 153.05788405 94.82025353 153.05386567 88.1640625 153.04882812 C75.10936547 153.03811087 62.05468393 153.02124096 49 153 C49 150.69 49 148.38 49 146 C49.56707829 145.99853344 50.13415659 145.99706688 50.71841908 145.99555588 C64.55876877 145.95839765 78.39887234 145.89901484 92.23902607 145.81609726 C98.93222962 145.7763991 105.62529499 145.74445339 112.31860352 145.72900391 C118.78323094 145.71381235 125.24749863 145.67932143 131.71196556 145.63169098 C134.17295383 145.61690313 136.63399346 145.60896048 139.09502602 145.60811615 C142.55372682 145.60573704 146.0114411 145.57857939 149.4699707 145.54589844 C150.47770538 145.5509288 151.48544006 145.55595917 152.52371216 145.56114197 C160.19308253 145.44970409 168.17697786 144.26308411 174.1873827 139.13299179 C176.09325284 137.15048414 177.55150808 135.34781005 179 133 C179.33246735 132.48090057 179.66493469 131.96180115 180.00747681 131.42697144 C184.33684657 123.45578844 183.5591657 114.63145416 183.49609375 105.83203125 C183.49624894 104.06564779 183.49774123 102.299264 183.50050354 100.53288269 C183.50188258 96.84541627 183.48940909 93.15834116 183.46655273 89.47094727 C183.43810674 84.75329651 183.44092901 80.0362921 183.45364285 75.31859303 C183.46060716 71.6767986 183.45280319 68.03515275 183.44038582 64.3933773 C183.43588305 62.65391294 183.43552421 60.91443257 183.43945122 59.17496681 C183.4423725 56.74367316 183.42581574 54.31326196 183.40405273 51.88208008 C183.40855438 51.16973206 183.41305603 50.45738403 183.41769409 49.72344971 C183.34919003 45.10073161 182.46920133 41.91028087 180 38 C176.31931607 35.54621071 174.31946281 35.69353786 169.92578125 35.5859375 C169.2419487 35.56657135 168.55811615 35.5472052 167.8535614 35.5272522 C165.67333375 35.46756003 163.49305298 35.42111369 161.3125 35.375 C159.8326595 35.33681057 158.352841 35.29775826 156.87304688 35.2578125 C153.2488995 35.16186798 149.62458743 35.07779849 146 35 C146 34.67 146 34.34 146 34 C147.98 34 149.96 34 152 34 C152 23.11 152 12.22 152 1 C101.84 1 51.68 1 0 1 C0 0.67 0 0.34 0 0 Z " fill="#CACFE5" transform="translate(98,126)"/>
<path d="M0 0 C7.26 0 14.52 0 22 0 C22.06782685 10.32707237 22.12284561 20.65399635 22.15543652 30.98124123 C22.17107997 35.77680372 22.19229416 40.57220567 22.22631836 45.36767578 C22.25895885 49.99719187 22.27686295 54.6265537 22.28463173 59.25617599 C22.29016681 61.02079063 22.30097554 62.78539701 22.31719017 64.54994583 C22.33902695 67.02518078 22.34196434 69.49978159 22.34057617 71.97509766 C22.351362 72.70158508 22.36214783 73.42807251 22.3732605 74.17657471 C22.34489628 78.86300786 21.4701417 82.02263662 19 86 C14.13868967 90.64994901 9.92915479 93.25573323 3.14677429 93.24050903 C2.19751572 93.24325836 1.24825714 93.24600769 0.27023315 93.24884033 C-0.75907318 93.24164978 -1.78837952 93.23445923 -2.84887695 93.22705078 C-4.48857201 93.22748886 -4.48857201 93.22748886 -6.16139221 93.22793579 C-9.77043629 93.22654373 -13.37927329 93.21098807 -16.98828125 93.1953125 C-19.49220161 93.19158194 -21.99612343 93.18873517 -24.50004578 93.18673706 C-30.41437926 93.17988399 -36.32864642 93.16412495 -42.24294585 93.14403808 C-49.63916424 93.11946495 -57.03539185 93.10874279 -64.43164062 93.09765625 C-77.62113141 93.07621217 -90.81056101 93.04246504 -104 93 C-104 91.35 -104 89.7 -104 88 C-103.67 89.32 -103.34 90.64 -103 92 C-53.995 91.505 -53.995 91.505 -4 91 C-1.63604478 84.69611943 -0.5553882 80.8462119 -0.56762695 74.47265625 C-0.5574353 73.66194168 -0.54724365 72.85122711 -0.53674316 72.01594543 C-0.50680636 69.3647249 -0.49737709 66.71386678 -0.48828125 64.0625 C-0.4714202 62.21304136 -0.45326805 60.36359407 -0.43388367 58.51416016 C-0.38653235 53.66782176 -0.35662701 48.82152944 -0.33044434 43.97503662 C-0.30056355 39.02102564 -0.25405914 34.06717317 -0.20898438 29.11328125 C-0.12312039 19.40891919 -0.05723826 9.70457316 0 0 Z " fill="#A2D937" transform="translate(250,170)"/>
<path d="M0 0 C2.59375 -0.53125 2.59375 -0.53125 5.5 -0.5 C6.93859375 -0.51546875 6.93859375 -0.51546875 8.40625 -0.53125 C9.2621875 -0.3559375 10.118125 -0.180625 11 0 C11.53957085 0.98954681 11.53957085 0.98954681 12.09004211 1.99908447 C14.32963248 4.34533052 14.8819682 4.32617802 18.0052948 4.51898193 C19.72099348 4.54838297 21.43715319 4.55563106 23.15307617 4.54589844 C24.08985703 4.55623611 25.02663788 4.56657379 25.99180603 4.57722473 C29.09236696 4.60675434 32.19227799 4.60815406 35.29296875 4.609375 C37.44103753 4.62434977 39.58909476 4.64107542 41.73713684 4.65948486 C47.39407873 4.70324942 53.0508653 4.7231777 58.70794678 4.73822021 C64.47921977 4.75775846 70.25032419 4.79973212 76.02148438 4.83984375 C87.34760437 4.91524454 98.67368683 4.96547626 110 5 C109.07845147 11.60061227 109.07845147 11.60061227 105.5625 14.3125 C104.94503906 14.80363281 104.32757813 15.29476563 103.69140625 15.80078125 C100.60488968 17.98914288 98.65299919 18.13015036 94.90252686 18.14717102 C93.28327049 18.15790398 93.28327049 18.15790398 91.63130188 18.16885376 C90.44167343 18.17154266 89.25204498 18.17423157 88.02636719 18.17700195 C86.15306984 18.18685875 86.15306984 18.18685875 84.2419281 18.19691467 C80.09357467 18.21668607 75.94525994 18.22831881 71.796875 18.23828125 C70.36871572 18.2423287 68.94055664 18.24644562 67.51239777 18.25063133 C60.8018885 18.26968601 54.09139026 18.28391561 47.38085914 18.2922433 C39.63642077 18.30201275 31.89226845 18.32832315 24.14793086 18.36874419 C18.16143196 18.39891705 12.17501498 18.41371333 6.18844151 18.41702431 C2.61333993 18.41937381 -0.96145617 18.42832029 -4.53647614 18.45348549 C-8.52733992 18.48112335 -12.51782836 18.47693143 -16.50878906 18.4699707 C-18.28108635 18.48918579 -18.28108635 18.48918579 -20.08918762 18.50878906 C-26.35304132 18.46891401 -30.28253724 18.2942516 -35 14 C-37.57702109 10.56397188 -38 9.39927132 -38 5 C-36.95545654 4.9906543 -35.91091309 4.98130859 -34.8347168 4.97167969 C-30.959771 4.93181126 -27.08562186 4.86606259 -23.21118164 4.79248047 C-21.5342024 4.76425232 -19.85708965 4.7430469 -18.17993164 4.72900391 C-15.76899782 4.70759875 -13.35967216 4.66096574 -10.94921875 4.609375 C-9.82407112 4.60753204 -9.82407112 4.60753204 -8.67619324 4.60565186 C-6.3043357 4.58277965 -6.3043357 4.58277965 -3 4 C-1.13375216 2.10215369 -1.13375216 2.10215369 0 0 Z " fill="#E6E9F6" transform="translate(163,315)"/>
<path d="M0 0 C4.23170951 -0.0999677 8.4627671 -0.17197673 12.6953125 -0.21972656 C14.13065587 -0.23966189 15.56591997 -0.26682074 17.00097656 -0.30175781 C26.86556931 -0.53564634 35.55437136 -0.3175476 43.62109375 6.078125 C44.22050781 6.79484375 44.81992187 7.5115625 45.4375 8.25 C46.05496094 8.95640625 46.67242187 9.6628125 47.30859375 10.390625 C51.6885594 17.14770827 52.45164278 23.27426564 52.3984375 31.125 C52.40130768 32.07133301 52.40417786 33.01766602 52.40713501 33.99267578 C52.40916595 35.98275353 52.40370438 37.97285168 52.39111328 39.96289062 C52.37504592 42.99134389 52.3909953 46.01846274 52.41015625 49.046875 C52.40817365 50.98958625 52.40432962 52.93229667 52.3984375 54.875 C52.40754654 56.21908936 52.40754654 56.21908936 52.4168396 57.59033203 C52.32536758 65.85573983 50.154241 72.37311871 45 79 C37.18572336 86.63667945 29.64267122 87.37643686 19.27734375 87.26367188 C17.8515566 87.23861497 16.42577534 87.21322025 15 87.1875 C13.54298257 87.17242741 12.08595007 87.15874355 10.62890625 87.14648438 C7.08562075 87.11367903 3.54290829 87.06203907 0 87 C0 84.69 0 82.38 0 80 C0.92748047 80.00112793 1.85496094 80.00225586 2.81054688 80.00341797 C6.28545889 79.99343259 9.75802684 79.95667834 13.23242188 79.90234375 C14.72972757 79.88428838 16.22719843 79.87659613 17.72460938 79.87988281 C28.93479152 80.1755392 28.93479152 80.1755392 38.38671875 74.92219543 C43.52635669 68.79840977 44.60538025 61.97081299 44.53125 54.21484375 C44.5350769 53.31431778 44.53890381 52.41379181 44.54284668 51.48597717 C44.54555022 49.59602734 44.53829909 47.70603908 44.52148438 45.81616211 C44.50002641 42.94103887 44.52135175 40.06840678 44.546875 37.19335938 C44.54423194 35.34634871 44.5391074 33.49933959 44.53125 31.65234375 C44.53934692 30.80316879 44.54744385 29.95399384 44.55578613 29.0790863 C44.45639164 22.68421794 43.04809914 17.13980562 38.48205566 12.43638611 C33.82706186 8.45679071 30.73548657 7.827319 24.8046875 7.68359375 C24.09724396 7.66281265 23.38980042 7.64203156 22.66091919 7.62062073 C20.39904575 7.55518922 18.13705538 7.49627026 15.875 7.4375 C14.34243578 7.39430867 12.80988343 7.35069418 11.27734375 7.30664062 C7.51834927 7.19951445 3.75923708 7.0982291 0 7 C0 4.69 0 2.38 0 0 Z " fill="#C8CDE0" transform="translate(298,152)"/>
<path d="M0 0 C99 0 198 0 300 0 C298.43512114 7.82439432 292.67435039 13.47634829 286.125 17.9375 C276.73151443 22.99832791 267.09370315 23.42759904 256.62426758 23.34057617 C255.21379617 23.33972799 253.80332343 23.34020877 252.39285278 23.34190369 C248.59805184 23.3427576 244.80354062 23.32523093 241.00880647 23.30418181 C237.03035629 23.28531319 233.05189805 23.2836566 229.07341003 23.28010559 C221.55490308 23.27081484 214.0365284 23.24624169 206.51807946 23.21605712 C197.95210522 23.18242014 189.38612437 23.16600382 180.82010043 23.15097082 C163.21332402 23.11968916 145.60667604 23.06698704 128 23 C128 22.67 128 22.34 128 22 C129.03948272 21.99365209 129.03948272 21.99365209 130.0999651 21.98717594 C146.95001825 21.88393996 163.80002711 21.77531282 180.65000629 21.66066074 C188.7984759 21.60534669 196.94694988 21.55186766 205.09545898 21.50268555 C212.19642833 21.45982146 219.29736568 21.41353782 226.39828557 21.36312145 C230.15930021 21.33653845 233.92030858 21.31168581 237.68136024 21.29092598 C241.8765701 21.26770574 246.07169007 21.23685225 250.2668457 21.20532227 C251.51840958 21.1995668 252.76997345 21.19381134 254.0594635 21.18788147 C255.19949829 21.17809265 256.33953308 21.16830383 257.51411438 21.15821838 C258.50688542 21.15176583 259.49965647 21.14531328 260.52251148 21.1386652 C263.13388427 21.10132675 263.13388427 21.10132675 266 20 C266 19.34 266 18.68 266 18 C266.61875 17.9175 267.2375 17.835 267.875 17.75 C270.15042479 17.20076457 270.15042479 17.20076457 271.125 15.125 C271.41375 14.42375 271.7025 13.7225 272 13 C272.66 12.01 273.32 11.02 274 10 C274.66 10 275.32 10 276 10 C276.33 8.35 276.66 6.7 277 5 C277.66 5 278.32 5 279 5 C279.33 3.68 279.66 2.36 280 1 C187.6 1 95.2 1 0 1 C0 0.67 0 0.34 0 0 Z " fill="#A1ABD4" transform="translate(49,288)"/>
<path d="M0 0 C3.26183953 1.42182749 3.90354667 2.88122134 5.4375 6.0625 C5.75878906 9.07348633 5.75878906 9.07348633 5.703125 12.39453125 C5.70699219 13.60560547 5.71085938 14.81667969 5.71484375 16.06445312 C5.69669752 18.59326047 5.66298564 21.12200669 5.61328125 23.65039062 C5.67298971 31.91106046 5.67298971 31.91106046 9.83984375 38.7890625 C11.01582072 39.90521796 12.21280566 41.00002713 13.4375 42.0625 C16.90223795 45.90180421 18.45009714 48.94595792 19.4375 54.0625 C19.25322833 57.25654233 18.91848292 59.2777384 17.25 62 C15.4375 63.0625 15.4375 63.0625 12.375 62.9375 C9.4375 62.0625 9.4375 62.0625 7.4375 59.0625 C7.01433111 57.6537571 6.62078784 56.23592715 6.25 54.8125 C4.84182108 50.36524108 2.81826681 48.00098535 -0.74609375 45.05859375 C-7.18500726 37.98271245 -7.19415209 30.55046034 -7.08398438 21.43408203 C-7.06239947 19.30257263 -7.08392531 17.17438013 -7.109375 15.04296875 C-7.10673398 13.67968011 -7.10161366 12.31639352 -7.09375 10.953125 C-7.08923828 9.72625977 -7.08472656 8.49939453 -7.08007812 7.23535156 C-6.36729497 2.86585632 -4.65079259 0.11343397 0 0 Z " fill="#151515" transform="translate(150.5625,39.9375)"/>
<path d="M0 0 C24.62007413 -3.02695784 24.62007413 -3.02695784 33.28564453 1.84863281 C39.37030144 6.71028885 44.6081046 12.5660508 49 19 C49 19.33 49 19.66 49 20 C43.85909327 20.22348446 38.72104402 20.38623366 33.57641602 20.49438477 C31.82917003 20.53948437 30.08226075 20.60078711 28.33618164 20.67895508 C13.85236115 21.31084117 13.85236115 21.31084117 9.35766602 18.13012695 C7.54398391 15.82923678 6.2441895 13.64562566 5 11 C4.12021484 9.62521484 4.12021484 9.62521484 3.22265625 8.22265625 C2.64837891 7.15337891 2.64837891 7.15337891 2.0625 6.0625 C1.66160156 5.33160156 1.26070312 4.60070312 0.84765625 3.84765625 C0 2 0 2 0 0 Z " fill="#57BD90" transform="translate(55,232)"/>
<path d="M0 0 C3.54278877 1.3824257 6.74029365 2.90898961 10 4.875 C11.2375 5.61363281 11.2375 5.61363281 12.5 6.3671875 C13.325 6.90601563 14.15 7.44484375 15 8 C15.8664917 8.51868652 16.7329834 9.03737305 17.62573242 9.57177734 C20.42270011 12.43230594 20.56848545 14.16734265 20.56648254 18.09442139 C20.54067612 18.88310608 20.51486969 19.67179077 20.48828125 20.484375 C20.48120651 21.29996887 20.47413177 22.11556274 20.46684265 22.95587158 C20.43890544 25.55485681 20.37617281 28.15166872 20.3125 30.75 C20.28741605 32.51429175 20.26460304 34.27861735 20.24414062 36.04296875 C20.18908154 40.36281356 20.10281735 44.68103863 20 49 C19.57517334 48.62488281 19.15034668 48.24976563 18.71264648 47.86328125 C15.72739688 45.26107108 12.77791683 42.81048119 9.47265625 40.625 C4.15070572 36.72972379 0.52830558 33.19144199 -0.58496094 26.46630859 C-1.14173721 17.62396484 -0.71471502 8.82609613 0 0 Z " fill="#56BB90" transform="translate(91,196)"/>
<path d="M0 0 C30.03 0 60.06 0 91 0 C90 3 90 3 87.96064758 4.66621399 C84.14549593 6.3849582 80.73154829 6.39752831 76.62963867 6.34057617 C75.79985504 6.34101425 74.97007141 6.34145233 74.11514282 6.34190369 C71.38250905 6.33981982 68.65049486 6.3165079 65.91796875 6.29296875 C64.01939733 6.28737136 62.12082157 6.28310194 60.22224426 6.28010559 C55.23267591 6.26866806 50.24337081 6.2392102 45.25390625 6.20599365 C40.15954143 6.17526928 35.06513395 6.16159519 29.97070312 6.14648438 C19.98035328 6.11433952 9.99019856 6.06315629 0 6 C0 4.02 0 2.04 0 0 Z " fill="#E6E9F5" transform="translate(147,272)"/>
<path d="M0 0 C35.40537564 -2.77940751 35.40537564 -2.77940751 44.0859375 3.52734375 C48.01408335 7.17965533 51.41910009 11.28290685 54 16 C54 16.33 54 16.66 54 17 C36.69244991 18.07426173 19.74697387 14.43166892 5 5 C3.31302066 3.35389664 1.64350369 1.68951211 0 0 Z " fill="#55B38A" transform="translate(76,261)"/>
<path d="M0 0 C10.62990271 10.33423654 16.6798816 27.1799981 17.1171875 41.9609375 C17.1430742 45.64202562 17.08832375 49.31984392 17 53 C15.38214822 51.66351375 13.77503139 50.31284655 12.20898438 48.91601562 C9.99412082 46.9398836 9.99412082 46.9398836 7.43164062 45.13085938 C3.05755173 41.56260852 -0.0851235 38.44971317 -0.80908203 32.72021484 C-1.10508889 27.76041111 -0.8752985 22.83185476 -0.625 17.875 C-0.57475517 16.1381497 -0.52914257 14.40115889 -0.48828125 12.6640625 C-0.37891139 8.43919486 -0.20688889 4.22116998 0 0 Z " fill="#22AD7C" transform="translate(120,218)"/>
<path d="M0 0 C1.8125 1 1.8125 1 3 3 C3.74662894 9.29301535 2.6728762 13.81117213 -1 19 C-2.32728554 20.31927375 -3.68329974 21.61009811 -5.0625 22.875 C-8.97056763 26.52929701 -10.29203513 29.72292036 -11.4296875 34.8984375 C-12 37 -12 37 -14 39 C-17.32914611 39.42499738 -19.19441575 39.59769154 -21.9375 37.5625 C-23.60472472 33.54154626 -23.11205952 30.15306179 -22 26 C-19.89360237 21.36070274 -16.82558506 17.76164416 -13.375 14.0625 C-10.16480979 10.55287773 -8.77608557 7.36548916 -7.60546875 2.78515625 C-6.39876349 -0.77267796 -3.26193604 -0.31823766 0 0 Z " fill="#161616" transform="translate(251,63)"/>
<path d="M0 0 C31.35 0 62.7 0 95 0 C93.87355865 6.75864811 93.87355865 6.75864811 90.5625 9.3125 C89.94503906 9.80363281 89.32757813 10.29476563 88.69140625 10.80078125 C85.58573707 13.00272222 83.63647877 13.12391891 79.8621521 13.12025452 C78.2298893 13.12231651 78.2298893 13.12231651 76.56465149 13.12442017 C75.36559677 13.12082489 74.16654205 13.11722961 72.93115234 13.11352539 C71.67264969 13.11367142 70.41414703 13.11381744 69.11750793 13.1139679 C65.66111084 13.11425548 62.20474826 13.10836508 58.7483592 13.10139394 C55.1382003 13.09515387 51.52804066 13.09455608 47.9178772 13.09336853 C41.07911286 13.09025715 34.24036446 13.08204634 27.40160716 13.07201904 C19.61694689 13.06085193 11.83228586 13.05534594 4.04761958 13.05032361 C-11.96826295 13.03986358 -27.98412944 13.02226785 -44 13 C-44 12.67 -44 12.34 -44 12 C-6.38 12 31.24 12 70 12 C72 8.23570226 72 8.23570226 73 5 C73.66 5 74.32 5 75 5 C75 3.68 75 2.36 75 1 C50.25 1 25.5 1 0 1 C0 0.67 0 0.34 0 0 Z " fill="#D6DAE9" transform="translate(178,320)"/>
<path d="M0 0 C0.33 0.66 0.66 1.32 1 2 C0.67 2.99 0.34 3.98 0 5 C1.32 5 2.64 5 4 5 C4.33 3.68 4.66 2.36 5 1 C5.99 1.33 6.98 1.66 8 2 C2.11191015 9.7930601 -4.77448206 15.38022314 -14.50369263 17.56126404 C-19.30339014 18.16355659 -24.03802222 18.13062018 -28.87060547 18.11352539 C-29.95412796 18.11367142 -31.03765045 18.11381744 -32.15400696 18.1139679 C-35.72508771 18.11327284 -39.29611589 18.10549947 -42.8671875 18.09765625 C-45.34725923 18.09579063 -47.82733133 18.0943674 -50.30740356 18.09336853 C-56.82740297 18.08955474 -63.34738002 18.07973414 -69.86737061 18.06866455 C-76.52355528 18.05788405 -83.17974647 18.05386567 -89.8359375 18.04882812 C-102.89063453 18.03811087 -115.94531607 18.02124096 -129 18 C-129 17.67 -129 17.34 -129 17 C-127.94621658 16.99413376 -126.89243317 16.98826752 -125.80671692 16.98222351 C-115.87472695 16.92500508 -105.94295612 16.85224798 -96.01118946 16.76428509 C-90.90518078 16.7195618 -85.79925225 16.68030991 -80.69311523 16.65356445 C-75.76519617 16.62755113 -70.83758522 16.58716253 -65.9098568 16.53681374 C-64.03004476 16.52013171 -62.15017942 16.50862576 -60.27030373 16.50238609 C-57.63666119 16.49275956 -55.00380929 16.46471784 -52.37036133 16.43237305 C-51.20510674 16.43452568 -51.20510674 16.43452568 -50.01631165 16.4367218 C-45.51943719 16.358638 -42.57107669 15.79819086 -39 13 C-38.67 12.34 -38.34 11.68 -38 11 C-37.13217896 10.98598145 -37.13217896 10.98598145 -36.24682617 10.97167969 C-17.89623273 11.16631333 -17.89623273 11.16631333 -2.3125 2.75 C-1.1678125 1.38875 -1.1678125 1.38875 0 0 Z " fill="#C3C7D8" transform="translate(276,261)"/>
<path d="M0 0 C2.3125 1 2.3125 1 4.3125 4 C4.75707945 8.48610302 4.6366246 12.99430493 4.625 17.5 C4.64111328 18.74910156 4.65722656 19.99820313 4.67382812 21.28515625 C4.67479492 23.07759766 4.67479492 23.07759766 4.67578125 24.90625 C4.67876221 26.00259766 4.68174316 27.09894531 4.68481445 28.22851562 C4.3125 31 4.3125 31 2.97729492 32.85351562 C0.34858823 34.66381136 -1.59499457 34.45099038 -4.6875 34 C-9.22887646 29.42051128 -8.20121212 23.60611796 -8.1875 17.5625 C-8.23003906 15.86383789 -8.23003906 15.86383789 -8.2734375 14.13085938 C-8.29528886 4.86042198 -8.29528886 4.86042198 -5.32421875 1.71484375 C-2.6875 0 -2.6875 0 0 0 Z " fill="#141414" transform="translate(197.6875,40)"/>
<path d="M0 0 C4.681875 -0.103125 9.36375 -0.20625 14.1875 -0.3125 C15.65598389 -0.35802002 17.12446777 -0.40354004 18.63745117 -0.45043945 C19.80252197 -0.46292725 20.96759277 -0.47541504 22.16796875 -0.48828125 C23.35672607 -0.51446533 24.5454834 -0.54064941 25.77026367 -0.56762695 C29.89322867 0.15698516 31.35641983 1.85080515 34 5 C33.26136719 4.9278125 32.52273438 4.855625 31.76171875 4.78125 C21.9882931 3.88711195 12.72472713 3.69647275 3 5 C2.8929083 15.30460094 2.98296403 25.5785096 3.4375 35.875 C3.49635376 37.27322998 3.49635376 37.27322998 3.55639648 38.69970703 C3.59837158 39.57997559 3.64034668 40.46024414 3.68359375 41.3671875 C3.72025146 42.14175293 3.75690918 42.91631836 3.79467773 43.71435547 C4.01749406 46.19474368 4.47162682 48.56792539 5 51 C8.93711437 51.14492719 12.87354625 51.23394537 16.8125 51.3125 C18.49182617 51.3753418 18.49182617 51.3753418 20.20507812 51.43945312 C21.27822266 51.45556641 22.35136719 51.47167969 23.45703125 51.48828125 C24.44678955 51.51446533 25.43654785 51.54064941 26.45629883 51.56762695 C29.2255838 51.23706274 29.2255838 51.23706274 30.81445312 48.609375 C31.92701091 46.16064815 32.4621939 44.34611194 32.6875 41.6875 C32.790625 40.470625 32.89375 39.25375 33 38 C33.66 38 34.32 38 35 38 C35.62757528 47.9540412 35.62757528 47.9540412 33.125 52.125 C29.50501782 55.31910192 27.22929841 55.11838825 22.4609375 55.09765625 C21.28837402 55.09515869 20.11581055 55.09266113 18.90771484 55.09008789 C16.664021 55.07643188 16.664021 55.07643188 14.375 55.0625 C9.63125 55.041875 4.8875 55.02125 0 55 C0 36.85 0 18.7 0 0 Z " fill="#BFBFBF" transform="translate(298,168)"/>
<path d="M0 0 C3.8496735 1.58420237 6.28658565 4.04281247 9.203125 6.97265625 C9.6857782 7.45576767 10.1684314 7.93887909 10.66571045 8.43663025 C11.67991024 9.45384054 12.69168919 10.47346961 13.70117188 11.49536133 C15.25335786 13.06589755 16.81349204 14.62819038 18.375 16.18945312 C26 23.85248363 26 23.85248363 26 25 C18.08 25 10.16 25 2 25 C-0.99264692 17.5183827 -1.50630043 10.01145967 -1 2 C-0.67 1.34 -0.34 0.68 0 0 Z " fill="#53AC86" transform="translate(49,198)"/>
<path d="M0 0 C2.47947529 -0.05476142 4.9577009 -0.09403016 7.4375 -0.125 C8.46907227 -0.15013672 8.46907227 -0.15013672 9.52148438 -0.17578125 C15.20180273 -0.22862142 19.17543706 0.70565268 25 2 C25 9.92 25 17.84 25 26 C19.25947172 21.07954719 13.89673356 16.07993523 8.5625 10.75 C7.73556641 9.9353125 6.90863281 9.120625 6.05664062 8.28125 C5.27611328 7.50265625 4.49558594 6.7240625 3.69140625 5.921875 C2.98185791 5.21643555 2.27230957 4.51099609 1.54125977 3.78417969 C0 2 0 2 0 0 Z " fill="#56B78E" transform="translate(57,190)"/>
<path d="M0 0 C1.65 0 3.3 0 5 0 C5 0.66 5 1.32 5 2 C4.34 2 3.68 2 3 2 C3 23.12 3 44.24 3 66 C1.68 66 0.36 66 -1 66 C-1.02314315 57.68998125 -1.04092518 49.37997592 -1.05181217 41.06993294 C-1.05703667 37.2114867 -1.06412649 33.35306247 -1.07543945 29.49462891 C-1.08628368 25.7728847 -1.09228011 22.0511617 -1.09487724 18.32940292 C-1.09672871 16.90759828 -1.10034403 15.48579483 -1.10573006 14.06399918 C-1.11296072 12.0766945 -1.11340823 10.08936861 -1.11352539 8.10205078 C-1.115746 6.96953888 -1.11796661 5.83702698 -1.12025452 4.67019653 C-1 2 -1 2 0 0 Z " fill="#A8E239" transform="translate(251,174)"/>
<path d="M0 0 C3.591189 1.34268068 6.78716992 2.94800275 10.0625 4.9375 C10.89910156 5.44152344 11.73570313 5.94554687 12.59765625 6.46484375 C13.39042969 6.97144531 14.18320313 7.47804687 15 8 C15.75667969 8.35835937 16.51335937 8.71671875 17.29296875 9.0859375 C20.23279434 12.38230944 19.41100591 16.45490238 19.25 20.6875 C19.23195313 21.58017578 19.21390625 22.47285156 19.1953125 23.39257812 C19.14817759 25.59613504 19.08240657 27.79752601 19 30 C17.45618945 27.94314063 15.91495053 25.88488462 14.38671875 23.81640625 C11.67336606 20.21731544 9.10264767 16.88119578 5.5625 14.0625 C4.716875 13.381875 3.87125 12.70125 3 12 C3 11.34 3 10.68 3 10 C2.01 9.67 1.02 9.34 0 9 C0 6.03 0 3.06 0 0 Z " fill="#24AF7D" transform="translate(91,196)"/>
<path d="M0 0 C4.56216465 -0.14532035 9.12373362 -0.23408477 13.6875 -0.3125 C15.62786133 -0.3753418 15.62786133 -0.3753418 17.60742188 -0.43945312 C19.47817383 -0.46362305 19.47817383 -0.46362305 21.38671875 -0.48828125 C23.10701294 -0.52755737 23.10701294 -0.52755737 24.86206055 -0.56762695 C28.95070113 0.17197387 30.3912761 1.85074306 33 5 C33.495 5.99 33.495 5.99 34 7 C22.78 7 11.56 7 0 7 C0 4.69 0 2.38 0 0 Z " fill="#DDE0EC" transform="translate(298,152)"/>
<path d="M0 0 C0.33 0 0.66 0 1 0 C1.11734237 4.45810752 1.18763372 8.91581128 1.25 13.375 C1.28351563 14.62667969 1.31703125 15.87835938 1.3515625 17.16796875 C1.47122459 28.59569825 -1.09256144 37.54903462 -9 46 C-17.82004536 54.14913281 -26.71315027 57.15269197 -38.7109375 57.09765625 C-39.95488281 57.09443359 -41.19882812 57.09121094 -42.48046875 57.08789062 C-43.76566406 57.07951172 -45.05085938 57.07113281 -46.375 57.0625 C-47.68339844 57.05798828 -48.99179687 57.05347656 -50.33984375 57.04882812 C-53.55994281 57.03707594 -56.7799477 57.02064543 -60 57 C-60.13132324 57.68562012 -60.26264648 58.37124023 -60.39794922 59.07763672 C-60.66115967 60.42752686 -60.66115967 60.42752686 -60.9296875 61.8046875 C-61.10226074 62.69655762 -61.27483398 63.58842773 -61.45263672 64.50732422 C-62.03327647 67.15154006 -62.85499012 69.5464074 -64 72 C-64.66 72 -65.32 72 -66 72 C-65.35841048 69.35307023 -64.71195217 66.70750071 -64.0625 64.0625 C-63.88009766 63.30775391 -63.69769531 62.55300781 -63.50976562 61.77539062 C-62.11328125 56.11328125 -62.11328125 56.11328125 -61 55 C-58.82652678 54.87759884 -56.64935136 54.82014796 -54.47265625 54.7890625 C-53.10871295 54.76094594 -51.74478085 54.7322813 -50.38085938 54.703125 C-48.23527931 54.66222435 -46.08989775 54.62534101 -43.9440918 54.59863281 C-31.66271673 54.43257156 -20.60996741 53.4332367 -11 45 C0.61731908 32.34501747 -0.37191175 16.16686011 0 0 Z " fill="#555556" transform="translate(359,193)"/>
<path d="M0 0 C3.0625 1.1875 3.0625 1.1875 6.0625 3.1875 C6.40307617 5.06689453 6.40307617 5.06689453 6.35546875 7.3203125 C6.34580078 8.12597656 6.33613281 8.93164062 6.32617188 9.76171875 C6.30103516 10.60347656 6.27589844 11.44523438 6.25 12.3125 C6.23646484 13.16199219 6.22292969 14.01148438 6.20898438 14.88671875 C6.17358219 16.98724837 6.11977401 19.08745293 6.0625 21.1875 C4.32977901 19.72435711 2.60341261 18.25603594 0.890625 16.76953125 C-0.53556059 15.53533218 -1.98263751 14.32526156 -3.4375 13.125 C-4.9375 11.1875 -4.9375 11.1875 -4.75 8.5625 C-3.9375 6.1875 -3.9375 6.1875 -2.9375 4.1875 C-3.5975 4.1875 -4.2575 4.1875 -4.9375 4.1875 C-4.9375 2.8675 -4.9375 1.5475 -4.9375 0.1875 C-2.9375 -0.8125 -2.9375 -0.8125 0 0 Z " fill="#55BC90" transform="translate(74.9375,193.8125)"/>
<path d="M0 0 C-6 6 -6 6 -8.59204102 6.11352539 C-9.71795654 6.10828857 -10.84387207 6.10305176 -12.00390625 6.09765625 C-13.21884766 6.09443359 -14.43378906 6.09121094 -15.68554688 6.08789062 C-16.96494141 6.07951172 -18.24433594 6.07113281 -19.5625 6.0625 C-20.84576172 6.05798828 -22.12902344 6.05347656 -23.45117188 6.04882812 C-26.63416022 6.03699545 -29.81705762 6.02051068 -33 6 C-33 4.35 -33 2.7 -33 1 C-28.62506889 0.8314921 -24.25004517 0.66551807 -19.875 0.5 C-18.6375 0.45230469 -17.4 0.40460938 -16.125 0.35546875 C-14.92617188 0.31035156 -13.72734375 0.26523438 -12.4921875 0.21875 C-10.84259033 0.1559082 -10.84259033 0.1559082 -9.15966797 0.09179688 C-6.10431671 0.00303068 -3.05643332 -0.01610769 0 0 Z " fill="#E5E9F5" transform="translate(332,232)"/>
<path d="M0 0 C1.81419434 0.00636726 1.81419434 0.00636726 3.66503906 0.01286316 C7.50609134 0.02957837 11.34660784 0.0672186 15.1875 0.10546875 C17.80077364 0.12052478 20.41405555 0.13421158 23.02734375 0.14648438 C29.41424352 0.17945853 35.80083347 0.22958691 42.1875 0.29296875 C42.1875 0.95296875 42.1875 1.61296875 42.1875 2.29296875 C22.3875 2.62296875 2.5875 2.95296875 -17.8125 3.29296875 C-18.4725 4.61296875 -19.1325 5.93296875 -19.8125 7.29296875 C-21.4375 9.04296875 -21.4375 9.04296875 -22.8125 10.29296875 C-23.4725 9.63296875 -24.1325 8.97296875 -24.8125 8.29296875 C-18.95450538 -0.73810629 -9.70219886 -0.12930939 0 0 Z " fill="#ADADAE" transform="translate(111.8125,114.70703125)"/>
<path d="M0 0 C0.66 0 1.32 0 2 0 C2 19.14 2 38.28 2 58 C-0.31 57.34 -2.62 56.68 -5 56 C-4.34 55.34 -3.68 54.68 -3 54 C-2.01 54.33 -1.02 54.66 0 55 C0 36.85 0 18.7 0 0 Z " fill="#5D5E5D" transform="translate(86,127)"/>
<path d="M0 0 C3.4595192 0.58674665 5.11981729 1.77293029 7.625 4.1875 C11.47612219 7.71164011 15.55558956 10.27980496 20.09375 12.8359375 C20.7228125 13.22007812 21.351875 13.60421875 22 14 C22 14.33 22 14.66 22 15 C9.79 15 -2.42 15 -15 15 C-14.67 14.34 -14.34 13.68 -14 13 C-4.76 12.67 4.48 12.34 14 12 C9.76997231 8.79476873 9.76997231 8.79476873 5.53344727 5.59814453 C1.11111111 2.22222222 1.11111111 2.22222222 0 0 Z " fill="#7B7C7D" transform="translate(64,264)"/>
<path d="M0 0 C1.20970459 0.00523682 2.41940918 0.01047363 3.66577148 0.01586914 C4.97094727 0.0190918 6.27612305 0.02231445 7.62084961 0.02563477 C9.00952213 0.03399138 10.39819401 0.04245634 11.78686523 0.05102539 C13.17944179 0.05603873 14.57202005 0.06060193 15.96459961 0.06469727 C19.38456394 0.07653105 22.80444367 0.09301659 26.22436523 0.11352539 C26.22436523 0.77352539 26.22436523 1.43352539 26.22436523 2.11352539 C16.98436523 2.11352539 7.74436523 2.11352539 -1.77563477 2.11352539 C-2.43563477 5.41352539 -3.09563477 8.71352539 -3.77563477 12.11352539 C-4.90063477 15.23852539 -4.90063477 15.23852539 -5.77563477 17.11352539 C-6.43563477 17.11352539 -7.09563477 17.11352539 -7.77563477 17.11352539 C-7.13404525 14.46659562 -6.48758694 11.8210261 -5.83813477 9.17602539 C-5.65573242 8.4212793 -5.47333008 7.6665332 -5.28540039 6.88891602 C-3.62288667 0.14817858 -3.62288667 0.14817858 0 0 Z " fill="#5E5E5E" transform="translate(300.775634765625,247.886474609375)"/>
<path d="M0 0 C0.33 0 0.66 0 1 0 C1.02505615 0.65597168 1.0501123 1.31194336 1.07592773 1.98779297 C1.1917326 4.95040183 1.31452886 7.91268031 1.4375 10.875 C1.47681641 11.90753906 1.51613281 12.94007813 1.55664062 14.00390625 C1.59853516 14.99003906 1.64042969 15.97617188 1.68359375 16.9921875 C1.72025146 17.90339355 1.75690918 18.81459961 1.79467773 19.75341797 C1.86577065 22.03483481 1.86577065 22.03483481 3 24 C7.27060618 24.11589162 11.54080984 24.18714802 15.8125 24.25 C17.02744141 24.28351563 18.24238281 24.31703125 19.49414062 24.3515625 C20.65751953 24.36445313 21.82089844 24.37734375 23.01953125 24.390625 C24.09307861 24.41157227 25.16662598 24.43251953 26.27270508 24.45410156 C29.10715398 24.25454301 29.10715398 24.25454301 30.85546875 22.13671875 C32.27172812 19.49271236 32.30516227 17.73077741 32.1875 14.75 C32.16042969 13.85796875 32.13335937 12.9659375 32.10546875 12.046875 C32.05326172 11.03367188 32.05326172 11.03367188 32 10 C32.66 10 33.32 10 34 10 C34.10892951 11.72774308 34.18601092 13.45750948 34.25 15.1875 C34.29640625 16.15042969 34.3428125 17.11335938 34.390625 18.10546875 C33.87803119 21.90378885 32.73487282 23.33383144 30 26 C26.79199219 26.56762695 26.79199219 26.56762695 23.046875 26.48828125 C22.05654266 26.47766914 22.05654266 26.47766914 21.04620361 26.46684265 C18.94629508 26.43894727 16.84909621 26.37623287 14.75 26.3125 C13.3229553 26.28741017 11.89586862 26.26459817 10.46875 26.24414062 C6.97729431 26.19339272 3.49166283 26.09557471 0 26 C0 17.42 0 8.84 0 0 Z " fill="#E0E0E0" transform="translate(299,196)"/>
<path d="M0 0 C0.33 0 0.66 0 1 0 C1 12.21 1 24.42 1 37 C-6.875 30.25 -6.875 30.25 -10 26 C-6.65750371 26.59687434 -4.53563658 27.73603877 -2 30 C-2 30.66 -2 31.32 -2 32 C-1.34 32 -0.68 32 0 32 C0 21.44 0 10.88 0 0 Z " fill="#589D80" transform="translate(110,208)"/>
<path d="M0 0 C3.7910119 1.44950455 7.3874638 3.15172566 11 5 C9.375 7.5 9.375 7.5 7 10 C3.8125 10.375 3.8125 10.375 1 10 C0 9 0 9 -0.09765625 6.93359375 C-0.08605469 6.10988281 -0.07445313 5.28617188 -0.0625 4.4375 C-0.05347656 3.61121094 -0.04445313 2.78492188 -0.03515625 1.93359375 C-0.02355469 1.29550781 -0.01195313 0.65742188 0 0 Z " fill="#29A579" transform="translate(91,196)"/>
<path d="M0 0 C9.9 0 19.8 0 30 0 C30 0.33 30 0.66 30 1 C29.40461426 1.01981934 28.80922852 1.03963867 28.19580078 1.06005859 C25.50507847 1.15516126 22.81514852 1.26489842 20.125 1.375 C19.18785156 1.4059375 18.25070313 1.436875 17.28515625 1.46875 C16.38925781 1.50742188 15.49335937 1.54609375 14.5703125 1.5859375 C13.32918701 1.63306885 13.32918701 1.63306885 12.06298828 1.68115234 C9.78013915 1.82599137 9.78013915 1.82599137 8 4 C7.01 4 6.02 4 5 4 C5 5.65 5 7.3 5 9 C2.28404014 5.8459821 1.03153759 4.12615036 0 0 Z " fill="#53B089" transform="translate(55,232)"/>
<path d="M0 0 C3.93089159 3.2633817 6.91174115 5.88232154 10 10 C4.72 10 -0.56 10 -6 10 C-6 9.67 -6 9.34 -6 9 C-4.02 9 -2.04 9 0 9 C0 6.03 0 3.06 0 0 Z " fill="#29996F" transform="translate(120,268)"/>
<path d="M0 0 C1.41805831 0.28482368 2.83440379 0.57818144 4.25 0.875 C5.03890625 1.03742188 5.8278125 1.19984375 6.640625 1.3671875 C8.99875132 1.99966509 10.91391107 2.733446 13 4 C13.75 6.125 13.75 6.125 14 8 C10.42355152 9.2380014 7.66305234 8.74926071 4 8 C4.33 7.34 4.66 6.68 5 6 C4.175 5.195625 3.35 4.39125 2.5 3.5625 C0 1 0 1 0 0 Z " fill="#CDD3E7" transform="translate(326,152)"/>
<path d="M0 0 C5.94 0.99 5.94 0.99 12 2 C12 9.92 12 17.84 12 26 C11.67 26 11.34 26 11 26 C10.67 19.73 10.34 13.46 10 7 C6.7 5.35 3.4 3.7 0 2 C0 1.34 0 0.68 0 0 Z " fill="#259169" transform="translate(70,190)"/>
<path d="M0 0 C7.92 0 15.84 0 24 0 C23.01 0.495 23.01 0.495 22 1 C21.67 1.66 21.34 2.32 21 3 C20.31035156 2.98839844 19.62070312 2.97679687 18.91015625 2.96484375 C12.84227348 2.90657876 7.01642604 3.21096052 1 4 C0.67 2.68 0.34 1.36 0 0 Z " fill="#EDEDEE" transform="translate(299,169)"/>
<path d="M0 0 C0.33 0.66 0.66 1.32 1 2 C0.67 2.99 0.34 3.98 0 5 C1.32 5 2.64 5 4 5 C4.33 3.68 4.66 2.36 5 1 C5.99 1.33 6.98 1.66 8 2 C6.71520959 3.50589388 5.42195918 5.00457375 4.125 6.5 C3.40570313 7.3353125 2.68640625 8.170625 1.9453125 9.03125 C1.30335938 9.6809375 0.66140625 10.330625 0 11 C-0.66 11 -1.32 11 -2 11 C-2 10.34 -2 9.68 -2 9 C-2.66 8.67 -3.32 8.34 -4 8 C-3.67 7.67 -3.34 7.34 -3 7 C-3.66 6.34 -4.32 5.68 -5 5 C-3.35 3.35 -1.7 1.7 0 0 Z " fill="#C5C9DB" transform="translate(276,261)"/>
<path d="M0 0 C0.33 0 0.66 0 1 0 C1 5.61 1 11.22 1 17 C-5.875 11.25 -5.875 11.25 -7 9 C-6.360625 8.87625 -5.72125 8.7525 -5.0625 8.625 C-4.381875 8.41875 -3.70125 8.2125 -3 8 C-2.67 7.34 -2.34 6.68 -2 6 C-1.34 6 -0.68 6 0 6 C0 4.02 0 2.04 0 0 Z " fill="#5CB48E" transform="translate(80,198)"/>
<path d="M0 0 C4.03825066 -0.12406007 8.07575638 -0.21455045 12.11547852 -0.2746582 C13.48807102 -0.29972617 14.86053102 -0.33379082 16.23266602 -0.37719727 C18.21050696 -0.43817531 20.18934184 -0.46361009 22.16796875 -0.48828125 C23.35672607 -0.51446533 24.5454834 -0.54064941 25.77026367 -0.56762695 C29.89322867 0.15698516 31.35641983 1.85080515 34 5 C30.37 4.34 26.74 3.68 23 3 C23 2.67 23 2.34 23 2 C11.615 1.505 11.615 1.505 0 1 C0 0.67 0 0.34 0 0 Z " fill="#D2D2D2" transform="translate(298,168)"/>
<path d="M0 0 C2.475 2.475 2.475 2.475 5 5 C-6.88 5 -18.76 5 -31 5 C-31 4.67 -31 4.34 -31 4 C-15.655 3.505 -15.655 3.505 0 3 C0 2.01 0 1.02 0 0 Z " fill="#50AD87" transform="translate(99,247)"/>
<path d="M0 0 C0 3 0 3 -2 6 C-0.35 6 1.3 6 3 6 C3 5.34 3 4.68 3 4 C3.99 4.33 4.98 4.66 6 5 C5.09972412 6.03531726 4.17906965 7.05294165 3.25 8.0625 C2.73953125 8.63097656 2.2290625 9.19945312 1.703125 9.78515625 C0 11 0 11 -2.203125 10.68359375 C-3.09257812 10.34521484 -3.09257812 10.34521484 -4 10 C-3.67 8.68 -3.34 7.36 -3 6 C-3.99 5.67 -4.98 5.34 -6 5 C-4.02 3.35 -2.04 1.7 0 0 Z " fill="#C1C5D7" transform="translate(339,224)"/>
<path d="M0 0 C0.66 0.66 1.32 1.32 2 2 C1.67 2.66 1.34 3.32 1 4 C1.66 4 2.32 4 3 4 C3 3.34 3 2.68 3 2 C3.66 2 4.32 2 5 2 C5 4.31 5 6.62 5 9 C3.02 9 1.04 9 -1 9 C-1.625 5.625 -1.625 5.625 -2 2 C-1.34 1.34 -0.68 0.68 0 0 Z " fill="#53BD91" transform="translate(115,268)"/>
<path d="M0 0 C0.33 0 0.66 0 1 0 C3.21462689 8.40371809 3.20705918 16.3725342 3 25 C2.01 24.01 1.02 23.02 0 22 C0.66 22 1.32 22 2 22 C1.67 18.37 1.34 14.74 1 11 C0.01 10.67 -0.98 10.34 -2 10 C-2 8.68 -2 7.36 -2 6 C-1.34 6 -0.68 6 0 6 C0 4.02 0 2.04 0 0 Z " fill="#2E906C" transform="translate(134,246)"/>
<path d="M0 0 C6.6 0 13.2 0 20 0 C19.67 1.98 19.34 3.96 19 6 C16 6 16 6 14 5 C14.66 4.01 15.32 3.02 16 2 C10.72 1.67 5.44 1.34 0 1 C0 0.67 0 0.34 0 0 Z " fill="#C9CCE3" transform="translate(253,320)"/>
<path d="M0 0 C0.33 0 0.66 0 1 0 C1.02505615 0.65597168 1.0501123 1.31194336 1.07592773 1.98779297 C1.1917326 4.95040183 1.31452886 7.91268031 1.4375 10.875 C1.47681641 11.90753906 1.51613281 12.94007813 1.55664062 14.00390625 C1.59853516 14.99003906 1.64042969 15.97617188 1.68359375 16.9921875 C1.72025146 17.90339355 1.75690918 18.81459961 1.79467773 19.75341797 C1.86577065 22.03483481 1.86577065 22.03483481 3 24 C5.32156597 24.40729228 7.6568787 24.74438677 10 25 C10 25.33 10 25.66 10 26 C6.7 26 3.4 26 0 26 C0 17.42 0 8.84 0 0 Z " fill="#F3F3F4" transform="translate(299,196)"/>
<path d="M0 0 C3.52633646 0.58641959 5.2453807 1.87086107 7.8125 4.3125 C11.33737589 7.52655194 14.77720022 9.80062511 19 12 C19 12.66 19 13.32 19 14 C14.37999808 12.47157831 11.02262081 9.96722985 7.25 7 C6.66089844 6.54882812 6.07179688 6.09765625 5.46484375 5.6328125 C1.13375235 2.2675047 1.13375235 2.2675047 0 0 Z " fill="#4B4C4C" transform="translate(64,264)"/>
<path d="M0 0 C2.64 0 5.28 0 8 0 C8.33 1.32 8.66 2.64 9 4 C10.98 4 12.96 4 15 4 C15 4.66 15 5.32 15 6 C15.99 6.33 16.98 6.66 18 7 C12.08567056 6.36061303 6.40768132 4.44128714 1 2 C0.67 1.34 0.34 0.68 0 0 Z " fill="#58A383" transform="translate(87,268)"/>
<path d="M0 0 C1.65 0 3.3 0 5 0 C4.67 1.98 4.34 3.96 4 6 C3.34 6 2.68 6 2 6 C1.67 6.99 1.34 7.98 1 9 C-0.74627478 6.38058783 -1.38722388 4.96175123 -2 2 C-1.34 2 -0.68 2 0 2 C0 1.34 0 0.68 0 0 Z " fill="#58BD92" transform="translate(52,212)"/>
<path d="M0 0 C3.24208567 0.35049575 4.61527704 0.56221181 6.8125 3.0625 C7.204375 3.701875 7.59625 4.34125 8 5 C5.36 5 2.72 5 0 5 C0 3.35 0 1.7 0 0 Z " fill="#29A379" transform="translate(122,273)"/>
<path d="M0 0 C0 0.66 0 1.32 0 2 C-1.32 2 -2.64 2 -4 2 C-4.268125 2.598125 -4.53625 3.19625 -4.8125 3.8125 C-5.98493467 5.97224808 -7.19369282 7.35790256 -9 9 C-9.66 8.34 -10.32 7.68 -11 7 C-7.75404061 2.5947694 -5.63852303 0 0 0 Z " fill="#474748" transform="translate(98,116)"/>
<path d="M0 0 C6.875 0.875 6.875 0.875 8 2 C8.04080783 3.99958364 8.04254356 6.00045254 8 8 C6.85073734 7.04578192 5.70569459 6.08647955 4.5625 5.125 C3.92441406 4.59132813 3.28632812 4.05765625 2.62890625 3.5078125 C1 2 1 2 0 0 Z " fill="#28A377" transform="translate(124,258)"/>
<path d="M0 0 C2.31 0.33 4.62 0.66 7 1 C7.33 1.99 7.66 2.98 8 4 C5.36 4 2.72 4 0 4 C0 2.68 0 1.36 0 0 Z " fill="#52BF93" transform="translate(60,218)"/>
<path d="M0 0 C0.33 0 0.66 0 1 0 C1 1.65 1 3.3 1 5 C0.34 5 -0.32 5 -1 5 C-1 5.66 -1 6.32 -1 7 C-2.65 7 -4.3 7 -6 7 C-5 5 -4 3 -3 1 C-2.34 1.33 -1.68 1.66 -1 2 C-0.67 1.34 -0.34 0.68 0 0 Z " fill="#D4DAF3" transform="translate(343,223)"/>
<path d="M0 0 C0.66 0 1.32 0 2 0 C4.6855594 2.6855594 5.06049974 5.37621328 6 9 C5.01 9 4.02 9 3 9 C0.72162458 6.72162458 0.03353711 5.49187763 -0.1875 2.25 C-0.125625 1.5075 -0.06375 0.765 0 0 Z " fill="#AED968" transform="translate(128,208)"/>
<path d="M0 0 C2.97 0 5.94 0 9 0 C9.66 1.32 10.32 2.64 11 4 C7.0507432 3.44894091 3.65079826 2.61064629 0 1 C0 0.67 0 0.34 0 0 Z " fill="#AEB3CF" transform="translate(65,306)"/>
<path d="M0 0 C2.475 0.99 2.475 0.99 5 2 C5 2.66 5 3.32 5 4 C6.32 4 7.64 4 9 4 C9 5.32 9 6.64 9 8 C4.7257442 6.4169423 2.73468206 3.49431596 0 0 Z " fill="#AFB4D0" transform="translate(53,296)"/>
<path d="M0 0 C1.17539996 0.92652701 2.34010577 1.86663387 3.5 2.8125 C4.1496875 3.33457031 4.799375 3.85664063 5.46875 4.39453125 C7 6 7 6 7 9 C3.64564078 7.61198929 1.88709697 6.11371 0 3 C0 2.01 0 1.02 0 0 Z " fill="#54A585" transform="translate(85,233)"/>
<path d="M0 0 C0.66 0 1.32 0 2 0 C1.34 3.63 0.68 7.26 0 11 C-0.66 11 -1.32 11 -2 11 C-1.125 3.375 -1.125 3.375 0 0 Z " fill="#444444" transform="translate(40,191)"/>
<path d="M0 0 C1.98 1.65 3.96 3.3 6 5 C5.67 5.66 5.34 6.32 5 7 C2.525 6.01 2.525 6.01 0 5 C0 3.35 0 1.7 0 0 Z " fill="#54A885" transform="translate(93,241)"/>
<path d="M0 0 C0.99 0.33 1.98 0.66 3 1 C1.35 2.65 -0.3 4.3 -2 6 C-2 5.34 -2 4.68 -2 4 C-2.66 4 -3.32 4 -4 4 C-3.67 3.34 -3.34 2.68 -3 2 C-2.01 2 -1.02 2 0 2 C0 1.34 0 0.68 0 0 Z " fill="#9DCB42" transform="translate(268,252)"/>
<path d="M0 0 C1.98 0.99 1.98 0.99 4 2 C4 2.66 4 3.32 4 4 C3.01 4 2.02 4 1 4 C1 5.65 1 7.3 1 9 C0.67 9 0.34 9 0 9 C0 6.03 0 3.06 0 0 Z " fill="#61A98A" transform="translate(49,198)"/>
<path d="M0 0 C0.66 0 1.32 0 2 0 C2 2.64 2 5.28 2 8 C1.01 8 0.02 8 -1 8 C-0.814375 7.38125 -0.62875 6.7625 -0.4375 6.125 C0.23686176 3.95839822 0.23686176 3.95839822 -1 2 C-0.67 1.34 -0.34 0.68 0 0 Z " fill="#B3E563" transform="translate(116,192)"/>
<path d="M0 0 C0.66 0.33 1.32 0.66 2 1 C-0.31 3.31 -2.62 5.62 -5 8 C-5 5 -5 5 -2.5 2.3125 C-1.675 1.549375 -0.85 0.78625 0 0 Z " fill="#232529" transform="translate(110,161)"/>
</svg>
